<svg id="Layer_1" data-name="Layer 1" xmlns="http://www.w3.org/2000/svg" viewBox="0 0 147 147">
  <defs>
    <style type="text/css">
      <![CDATA[
	.cls-1{fill:#478aff;}
      ]]>
    </style>
  </defs>
  <title> ionic-logo-landscape</title>
  <path class="cls-1" d="M107.75,222.5a33.5,33.5,0,1,0,33.5,33.5A33.54,33.54,0,0,0,107.75,222.5Z" transform="translate(-34.25 -182.5)"/>
  <circle class="cls-1" cx="121.6" cy="27.71" r="15.26"/>
  <path class="cls-1" d="M174.64,225.55l-.64-1.4-1,1.16a23,23,0,0,1-9.21,6.34l-1,.36.4,1a60.09,60.09,0,1,1-29.71-31.21l.94.45.41-1a23,23,0,0,1,6.78-8.89l1.2-1-1.37-.71a72.68,72.68,0,0,0-33.7-8.19,73.51,73.51,0,1,0,66.89,43Z" transform="translate(-34.25 -182.5)"/>
</svg>